<?xml version="1.0" encoding="UTF-8"?>
<svg id="Capa_1" data-name="Capa 1" xmlns="http://www.w3.org/2000/svg" viewBox="0 0 1440 1440">
  <defs>
    <style>
      .cls-1 {
        fill: #f67823;
      }

      .cls-2 {
        fill: #030303;
      }

      .cls-3 {
        font-family: Montserrat-Bold, Montserrat;
        font-size: 68.48px;
        font-weight: 700;
      }

      .cls-4 {
        letter-spacing: .13em;
      }

      .cls-5 {
        letter-spacing: .13em;
      }

      .cls-6 {
        letter-spacing: .14em;
      }

      .cls-7 {
        letter-spacing: .14em;
      }

      .cls-8 {
        letter-spacing: .14em;
      }

      .cls-9 {
        fill: #fff;
      }
    </style>
  </defs>
  <path class="cls-1" d="M1207.64,1033.61H232.36c-50.55,0-91.68-41.13-91.68-91.68v-468.39c0-50.55,41.13-91.68,91.68-91.68h975.29c50.56,0,91.68,41.13,91.68,91.68v468.39c0,50.56-41.13,91.68-91.68,91.68ZM232.36,415.53c-31.98,0-58,26.02-58,58v468.39c0,31.98,26.02,58,58,58h975.29c31.98,0,58-26.02,58-58v-468.39c0-31.98-26.02-58-58-58H232.36Z"/>
  <rect class="cls-9" x="348.07" y="978.98" width="743.86" height="75.59"/>
  <g>
    <path class="cls-2" d="M509.59,539.22h-239.49c-10.14,0-18.35-8.22-18.35-18.35,0-10.14,8.22-18.35,18.35-18.35h239.49c23.93.09,24.06,36.6,0,36.7Z"/>
    <path class="cls-2" d="M509.59,714.18h-239.49c-10.14,0-18.35-8.22-18.35-18.35,0-10.14,8.22-18.35,18.35-18.35h239.49c23.93.09,24.06,36.6,0,36.7Z"/>
    <path class="cls-2" d="M509.59,889.13h-239.49c-10.14,0-18.35-8.22-18.35-18.35,0-10.14,8.22-18.35,18.35-18.35h239.49c23.93.09,24.06,36.6,0,36.7Z"/>
    <path class="cls-1" d="M839.92,539.22h-239.49c-10.14,0-18.35-8.22-18.35-18.35,0-10.14,8.22-18.35,18.35-18.35h239.49c23.93.09,24.06,36.6,0,36.7Z"/>
    <path class="cls-2" d="M839.92,714.18h-239.49c-10.14,0-18.35-8.22-18.35-18.35,0-10.14,8.22-18.35,18.35-18.35h239.49c23.93.09,24.06,36.6,0,36.7Z"/>
    <path class="cls-2" d="M618.78,695.83v174.96c-.1,23.95-36.6,24.04-36.7,0,0,0,0-174.96,0-174.96.1-23.95,36.6-24.04,36.7,0Z"/>
    <path class="cls-2" d="M1170.26,539.22h-239.49c-10.14,0-18.35-8.22-18.35-18.35,0-10.14,8.22-18.35,18.35-18.35h239.49c23.93.09,24.06,36.6,0,36.7Z"/>
    <path class="cls-2" d="M1170.26,714.18h-239.49c-10.14,0-18.35-8.22-18.35-18.35,0-10.14,8.22-18.35,18.35-18.35h239.49c23.93.09,24.06,36.6,0,36.7Z"/>
    <path class="cls-2" d="M1170.26,889.13h-239.49c-10.14,0-18.35-8.22-18.35-18.35,0-10.14,8.22-18.35,18.35-18.35h239.49c23.93.09,24.06,36.6,0,36.7Z"/>
  </g>
  <text class="cls-3" transform="translate(361.08 1039.93)"><tspan class="cls-8" x="0" y="0">DI</tspan><tspan class="cls-5" x="98.75" y="0">S</tspan><tspan class="cls-6" x="151.61" y="0">TRIB</tspan><tspan class="cls-4" x="358.55" y="0">U</tspan><tspan class="cls-7" x="421.55" y="0">TION</tspan></text>
  <text class="cls-3" transform="translate(999.99 1017.13) scale(.58)"><tspan x="0" y="0">SRL</tspan></text>
</svg>